/* XPM */
static char *result[] = {
/* columns rows colors chars-per-pixel */
"50 50 155 2 ",
"   c gray1",
".  c #090909",
"X  c #2C2C2C",
"o  c #343232",
"O  c #3B3B3B",
"+  c #43362E",
"@  c #4E392B",
"#  c #784703",
"$  c #75470E",
"%  c #784709",
"&  c #78480C",
"*  c #664710",
"=  c #66491B",
"-  c #724614",
";  c #774915",
":  c #71461A",
">  c #784C1F",
",  c #774E26",
"<  c #784D23",
"1  c #774F2B",
"2  c #784E29",
"3  c #77512F",
"4  c #69543B",
"5  c #775231",
"6  c #795534",
"7  c #77563E",
"8  c #7B5738",
"9  c #414141",
"0  c #575757",
"q  c #5B5B5B",
"w  c #6A594A",
"e  c #765D4B",
"r  c #6E6358",
"t  c #736355",
"y  c #75655B",
"u  c #6F6863",
"i  c #6D6D6D",
"p  c #746A64",
"a  c #736E6C",
"s  c #72706F",
"d  c #737373",
"f  c #C77817",
"g  c #C87916",
"h  c #C7791F",
"j  c #C97B1E",
"k  c #CC7C21",
"l  c #C67B2E",
"z  c #C67C32",
"x  c #87674C",
"c  c #907754",
"v  c #937A56",
"b  c #957C59",
"n  c #CC801E",
"m  c #D4841F",
"M  c #CE8121",
"N  c #D48425",
"B  c #D98626",
"V  c #DC8A22",
"C  c #DE8A2A",
"Z  c #CB8334",
"A  c #97805E",
"S  c #AF8E5F",
"D  c #978262",
"F  c #9A8462",
"G  c #B49363",
"H  c #B89767",
"J  c #BE9A65",
"K  c #BC9C6C",
"L  c #BDA274",
"P  c #C58245",
"I  c #C68348",
"U  c #CA8848",
"Y  c #C29D67",
"T  c #C19E69",
"R  c #C9A56F",
"E  c #DEAB66",
"W  c #DDAE6B",
"Q  c #CAA773",
"!  c #CCAC78",
"~  c #D3AD73",
"^  c #D9AF72",
"/  c #CFB27F",
"(  c #D7B174",
")  c #DEB475",
"_  c #DFB778",
"`  c #DFB879",
"'  c #E2AE67",
"]  c #E1B16D",
"[  c #E3B675",
"{  c #E8B770",
"}  c #E5B877",
"|  c #E8B976",
" . c #E3B778",
".. c #E5BB7B",
"X. c #E9BD7C",
"o. c #E7C07F",
"O. c #EBC07E",
"+. c #F0C27F",
"@. c #848384",
"#. c #8B8B8C",
"$. c #949494",
"%. c #999799",
"&. c #9F9D9F",
"*. c #B59E95",
"=. c #B1A08B",
"-. c #B4A096",
";. c #B9A396",
":. c #BBA89F",
">. c #A2A1A2",
",. c #ADA8A5",
"<. c #ABABAC",
"1. c #BCA9A1",
"2. c #BBAEAA",
"3. c #B6B5B6",
"4. c #B9B4B4",
"5. c #B8B7B9",
"6. c #BCBCBC",
"7. c #CEB48F",
"8. c #D0B585",
"9. c #CEB598",
"0. c #D5BB97",
"q. c #DEBF95",
"w. c #D3BA9B",
"e. c #E7BF80",
"r. c #E9BF81",
"t. c #E0BD8A",
"y. c #C1ADA2",
"u. c #C3B3A2",
"i. c #C8B8A6",
"p. c #CBBDAB",
"a. c #E6C284",
"s. c #ECC382",
"d. c #EFC886",
"f. c #EDC789",
"g. c #EEC98B",
"h. c #F1C684",
"j. c #F2C986",
"k. c #F0C788",
"l. c #F2CC8C",
"z. c #F8CD89",
"x. c #F5D08F",
"c. c #E3C496",
"v. c #E1C69E",
"b. c #F2CE91",
"n. c #F5D294",
"m. c #F8D595",
"M. c #F6D599",
"N. c #F9D799",
"B. c #F7D89E",
"V. c #F9D99C",
"C. c #DBC4A3",
"Z. c #FADBA2",
"A. c #C0C0C0",
"S. c #CCCCCC",
"D. c #D2D2D2",
/* pixels */
"} X.} d.x.m.x.j.O.o.o...| o.o.| } _ ` o.g.x.n.n.j.j.d.O.+.o.o.X...s.o...o.} o.} X.h.l.n.M.n.l.k.h.f.",
"o.s.n.M.j.s.| X.| o.o.{ [ [ o.o.O.g.b.M.x.j.j.+.d.O.O.O.o.X.O.O.o.) )  .)  .s.l.M.M.m.x.s.s.s.o.s.| ",
"M.n.j.s.O.o.o.o.} ) o.o.o.g.x.m.x.l.d.o.O.o.o.o.o.O.o.o...o.o.[ } ..o.g.m.M.B.m.l.h.s.o.X.X.X.s...X.",
"..} O.X.X.o.} ) o.o.d.x.m.g.d.+.O.d.+.o.o.o.} o.O.o.o.| o.} o.O.d.n.n.m.n.d.d.o.s.O.o.| s.X.X.X...r.",
"..o.o.o.{ } ..s.d.n.x.l.O.+.O.| o.o.o.o.o.} o.o.` o...o.d.g.m.n.m.x.s.h.o.s.o.s.o.X.X.X.X.X.X.s.f.l.",
"} } } ) ..o.b.n.n.x.d.O.d.o.o.o.o.o.o.o.} o.` o.b.n.x.m.b.g.x.g.d.h.d.o.s...X...O.X.o.s.} o.j.x.M.n.",
"o.o.f.x.n.n.g.g.+.o.o.o.O.o.o.o.W o.o.d.g.b.b.b.g.d.d.o.O.o.o.O...o.O.o.o.X.o.| X.s...s.g.n.M.x.h.s.",
"b.b.g.n.g.o.f...) | o.o.o.} } o.o.x.m.n.b.g.d.d.o.o.o.O.o.[ o.o.O.X...X...X...o.s.l.n.m.M.l.h.o.s...",
"l.g.j.o.o.} o.} o.o.^ ) o.d.l.x.x.x.o.o.o.o.o.} o.s.o.o.} o.o.o.+.O.j.o.g.x.x.n.M.n.n.l.s.o.o...r.X.",
"` o.o.o...t.0.q.W W ] O.s.o.} [ W ] ] ] ] E E { ' ] ' ' E ] ] ] { O.O.| o.o.o.c.v.c.a.s.X.s.X.s.s.X.",
"O.O.o.) o.w.5.2.U n m m m n n n n n n n n n m V m V V n n n n n m m m n n n Z u.6.p.o.s.o.....X.o.g.",
"o.) ) o.s.C.3.2.U m m V m n n n n n n n n n N V V V V m n n n n N V m n n n Z 1.6.C.....s.s.f.d.n.n.",
") o.d.n.n.C.5.2.U n B C B n n n n n n n n n N C C C C M n n n n C C N n n j Z ;.<.2.f.g.g.n.B.n.g.f.",
"d.n.n.O.b.0.5.2.U n B C B n n n n n n n n n N C C C C M n n n n C C N n n k Z -.<.p.M.b.g.f.s.f.s...",
"x.d.d.o.o.w.3.2.U n N C B M h j h h n n h j B C C C C M j j n n B C N h k j z *.<.u.a.s.f.X.e.` X.e.",
"d.o.o.` o.w.3.2.P j N C B k h h h h h h k k B C C C C k j h h k B C N h k j z *.<.u.s.e.e.` ` e...s.",
"....o. .[ 9.4.2.I h B C N h h k h h h h h h N C C C C k h h h k C C N h h h z *.<.u.` f.e.a.f.f.g.b.",
"f...) ) ) 9.5.2.I k N C N h h k h h h h h k N C C C C n h h h k B C N h h h z *.<.u.f.b.b.b.b.n.b.l.",
"` ) ) )  .w.5.2.P f m V N g g g f f f f g g N V C V C n g f f g B C M g f f l *.<.i.b.f.f.l.g.e.e.` ",
") ` ) s.g.C.5.4.1.1.y.y.y.1.1.1.:.1.1.:.-.-.;.-.;.;.;.;.-.-.-.-.;.;.;.-.-.-.-.,.<.u.` ` s.X. . .s...",
"....f.n.b.C.5.5.5.5.5.5.5.5.5.5.3.5.5.3.<.<.<.<.<.<.<.<.<.<.<.<.<.<.<.<.<.<.<.<.<.u.e...` ..e.) ` ) ",
"a.x.M.n.s.7.%.%.&.&.&.&.&.&.&.&.&.&.>.>.3.3.6.6.3.6.5.>.$.$.$.$.$.$.$.$.%.$.$.#.#.=.e.X...e.......g.",
"B.g.f.s.r.H o O 0 q q q q q q q q q q d A.S.S.D.D.D.S.@.q q q q q q q q q q q 9 o c a.f.f.f.g.b.b.b.",
"s.s.) .. .G o O 0 q q q q q q q q q q d A.S.S.D.D.D.D.@.q q q q q q q q q q q 9 o D b.b.b.f.l.f.s.a.",
"| X.[ ..[ G o + : ; ; ; e a a 4 = w i @.S.D.#.X d D.S.$.d y ; 3 a s e ; ; ; ; @ o v h.o.s. .X.a. .e.",
" ...] r...S o + - & & & 7 a s 4 * w i @.S.S.#.. d D.S.$.d r # 3 s d e & & & ; @ o c ..O...X...} s.X.",
"e.| X. ...G o + - & & & , e e t r u d @.S.S.#.. i D.S.$.d p t t e e 5 & & & & @ o v ....) ..) } ^ } ",
"o.o.s.s.g.L o + - & & & & % > p d d d @.S.D.#.  i D.D.$.d d d s 2 % & & & & & @ o v o. . .X. .[ ) s.",
"s.l.l.l.g.K o + - & & & & & < y a a d @.S.S.$.0 D S.S.#.d s s y , & & & & & ; @ o A s.s.d.j.l.n.b.n.",
"X.X.r.f.l.K o + - & & & & & & & ; e d @.3.6.6.6.6.6.6.#.d y & & & & & & & % $ @ o v X.s.l.l.n.l.g.s.",
"X.s.s.X.X.H o + - & & & & & & & & e d @.5.A.A.A.A.6.6.#.d y % & & & & & & & & @ o v s.l.l.l.s.s...X.",
"..s.} X.X.H o + - & & & & & & & & < 1 6 x x x x x y x 8 5 , & & & & & & & & $ @ o b s.s.s.X.s.s.X.e.",
"X.f.b.l.k.K o + - & & & & & & & & & & & % % % % % % % & % & & & & & & & & & - @ o b j.k.X.O.[ X. .s.",
"n.b.l.h.h.K o + - & & & & & & & & & & & & & & & & & & & & & & & & & & & & & $ @ o F h.h.X.[ X.X.X. .",
"l.h.X.X.| G o + - & & & & & & & & & & & & & & & & & & & & & & % & & & & % & ; @ o b h.X.X.} [  .[ ) ",
"X.} X.s...H o + : $ $ $ $ $ $ $ $ $ $ & $ $ $ $ $ $ $ $ $ $ $ ; $ & - & $ $ $ @ o v r..... . .....z.",
"X...r...[ G o o o o o o o o o o o o o o o o o o o o o o o o o o o o o o o o o o o v .. .) [ X.g.b.M.",
"X.|  . ...S o o o o o o o o o o o o o o o o o o o o o o o o o o o o o o o o o o o c s.X.[ l.n.n.z.h.",
"e.[ [ [ ) ~ T Q 8./ ! R T Q T J T Y Y T T Y Y Y Y Y Y Y T Q Q ! Q 8./ ! Q Y Y R J Q X...l.x.x.s.f.r.",
"..^ ^ ..r.f.n.m.z.z.j.X.| [  .| r.[ | [ | X.X...r.h.j.n.N.n.x.x.m.j.X.| X.X.h.| .... .l.n.l.j.s...| ",
"[ ^ ..r.k.N.m.r.r.X.X.X.X...X.X.X.| | [ X.r.z.N.N.N.m.z.z.h.h.r.r.X.r.| r.X.X.| [ | h.m.l.s.h.X.X.r.",
" .r.j.m.m.x.z.r.X.X.X.X.X.| [ X.X.X.X.r.k.n.N.m.z.z.r.h.X.X.X.r.h.X.r.| X.X.| X.s.l.N.l.h.| X.......",
"k.m.n.k.j.h.....r.X.X.[  .| X.X.X.r.k.N.N.n.k.r.r.r.+.h.X.X.X.X.| | |  .|  .| ..l.M.j.O.O.X.X.X. . .",
"N.n.z.k.z.X.r.X.X.X.| X. .[ [ X.r.z.N.N.b.z.r.r.X.X.X.X.X.| | | | | [ [ ..h.h.N.M.j.+.O.X.X.s.X...[ ",
"h.h.X.h.r...X.| .. . .[ ^ [ r.x.N.Z.z.j.X.X.r.r.X.r.| [ | | r.| ..r. ...h.n.N.z.h.h.h.X.....| e.[  .",
"r.r.| h.| X.r.| [  ...r.h.k.x.N.n.n.r.r.X.X.r.| X.[ [  .r.r.r.X.| ..r.z.Z.x.h.r.h.r.| X.| | [ ~ r.j.",
"X.X.r.X.X.X.r.| ..| X.k.b.N.N.j.r.r.| r.X.| r.X.r.| | X.|  .r.X.h.x.n.M.k.h.h.X.X.|  .[ .._ ( f.n.m.",
"r.X.| X.X. .| | r.r.n.N.n.z.r.X.| | | | X.| | r.r.|  .| X.r.k.z.N.V.b.h.h.h.X.X.X.X.e.r...X.b.M.m.z.",
"X.r.| [  .r.X.h.k.Z.Z.x.j.r.r.h.r.X.X.| | | X.|  .r.r.r.r.z.N.Z.b.k.h.X.r.r.X.X.r.r.X.r.j.m.x.z.r.r.",
"| {  .r.r.r.z.m.Z.z.k.r.h.r.| X.X.X.| | X.| |  . .| r.r.Z.Z.z.r.h.r.r.| X.X.r.X.r.z.h.z.N.n.b.k.r.r."
};
