/* XPM */
static char *result[] = {
/* columns rows colors chars-per-pixel */
"50 50 75 1 ",
"  c #030708",
". c #05090A",
"X c #080909",
"o c #36190A",
"O c #38190A",
"+ c #37360A",
"@ c #352B1B",
"# c #382E1E",
"$ c #382F21",
"% c #363024",
"& c #393021",
"* c #4D240C",
"= c #4D3B0C",
"- c #4A2F1B",
"; c #4A311D",
": c #4C3321",
"> c #4A3C27",
", c #4D4A0D",
"< c #4A431C",
"1 c #4C4622",
"2 c #4E412C",
"3 c #EF7C1F",
"4 c #F47E1F",
"5 c #ED7322",
"6 c #EE7C22",
"7 c #F37521",
"8 c #F37E21",
"9 c #F38520",
"0 c #EFE817",
"q c #EEE61D",
"w c #EEE81B",
"e c #F2E51B",
"r c #F3EB18",
"t c #EAE322",
"y c #DAAF6F",
"u c #D6AE71",
"i c #D9AF71",
"p c #D7B174",
"a c #DEB474",
"s c #DEB679",
"d c #DFB879",
"f c #E0B26E",
"g c #E2B675",
"h c #E4B977",
"j c #E8B976",
"k c #E2B778",
"l c #E5BB7B",
"z c #E9BD7C",
"x c #E7C07F",
"c c #EBC17E",
"v c #F0C27F",
"b c #DEBD88",
"n c #E5BE81",
"m c #E9BF81",
"M c #E4C084",
"N c #ECC383",
"B c #EFC887",
"V c #EDC789",
"C c #EEC98B",
"Z c #F1C684",
"A c #F2C986",
"S c #F0C788",
"D c #F2CC8C",
"F c #F8CD89",
"G c #F5D08F",
"H c #E5C590",
"J c #EECD93",
"K c #F2CE91",
"L c #F5D294",
"P c #F8D595",
"I c #F5D599",
"U c #F8D699",
"Y c #F7D89E",
"T c #F9D99D",
"R c #FADBA2",
/* pixels */
"hzhNGPGDccxxjxxjhsdxNGPLABNcvcxxlNxhxglhxNGLPPDZZZ",
"xNLIDvjjjxcahfxxcCGIK#. ... .@xccdssslBGIIPGZNMcmz",
"ILZNccxchdxxxBGPGGNcl@       @hdklxBGPYPGZcxczzclz",
"lhccxxhaxxBGGGNBxNxxs<+++++++<dxNLLILBZcNcckMzlzmz",
"xhxxgghNBPGBcvcjxx2@<qqqwwqq0w<%2CBAccxxzllczzxNND",
"hxhaxxKLPBBxvxxxxh@ +0rrwrrr00+ @MZxNlxxclcxhxBGUL",
"xhBKLLDBvxxxxcxdya<+,qwrwwwrrw,+<slxxzhhxNzBVPIDSB",
"LLDLCcMxajxxxxx&@<qwq966=+=689qwq<@@lzxxZSGUIDAcNk",
"DCBxxhxxhxydxNK. +qrr875o o579rrw+ .CGDIUIPDNcccml",
"dxxxhxdNxdBGIGD. +wre775-@-556rrw+  LILGBcMNlxzMBl",
"cchdxxxBKIKDNxx. +qr0=O:bdM;O=wrq+  McNxxzxxNhlczB",
"xaaxxCKIDxBxxNx. +qrw+ %JLI% +wrq+  xaxNxllcMNBBLI",
"axBLLGCNxcxaxgl. +trq,+1Hln<+,erq+  xMlhxccVVLYLCV",
"BLLcCxxxaxdddcx. o899qqt1@<tqt986o  lBVBBLILCBNVNl",
"LBBxxdhhxlxNDKG. o578rrw+ +trr875o XGLLLVMMBNxMklM",
"BxxdxxxxxCDCKMx@$-576erw,+,qre875:@@BMMxNxNlxkdnzN",
"dlxhsakMNCxxNnggbs;o*399eet998*o;hsxllMxkllVnMNVKK",
"NxasfhdlCNZNMlllzk@ o537rre877o @kMlllxlxxVJLLLLKD",
"laaallCPIcvZZNBVDN2$;553rrr835-@>skkVVVCLDCCZDZxll",
"adaMBKGDNBBNxxcllNlkl;O=qre=O-skMNDILLHBNxddMxlknl",
"dxBILZcNxahxkzkkllkkg@ +qrw+ @VKLCZlBlllxlNnslMhka",
"cLLKcBzllslkkszggshhg@ +qrw+ @klcckzkhxlpllnlnlklJ",
"IGBMxckgzahfgkggkzxNM&X+0rw+ @nzkMklkzkkMzNNBVCJKK",
"NxhlkhlhgaahkllVDLDGZ@X+0re+.@lhgkglxNDVDKKKKVDVNx",
"lzhlghfghklNDKLLZcNxh@.+wr0+.@sgzNCKLDDBccNxckzMkz",
"klfxhsggzZLKKDZZczhlh@ +wrw+.@xNPDDNNNzzxhkNxxkhBl",
"lzzhklNVKKDZSNzgzzczs@ +qrw+ &CBZxcgkkkggzlzgkahih",
"MccNVJDYKZNZNjgghhhfa@ +qrw+ #lxjzhzhzzghclhhclgsM",
"SASDDVLxcNZmjzzzhhhhl@ +qrw+ @xzzzzgjzcZDDNZZSDLDL",
"zzmSSZcgzNjhkhkghzZNC& +qrw+ @gzckgkcDLDVNjBSGIDBZ",
"zMNzzmjzzjghhljhlBCIH@.+wrw+ @jzzBVGIDNgzzMFFSMNlz",
"jNjzvjzNzggagkkCIS2@@  +wrw+ #lcDLLLZxzZzzNZZzNNlN",
"mBKSZZSZzjzajNDKAV@    +qrq+ $KKDSzZzzzzzZASzxgzhm",
"LKDZZZZmzZjmDLKDZV$ Xoo=qrw+ @zNhZjzjjmZZKZZzgzzzg",
"DZczjhmzjzmAZLDZZS@ o556rrw+ @zjzjlzhzZSKDZmxhgkgg",
"zhzZhmkggzmZFAZZZz@ O777rrw+ @zlzzgzzZDKDmzjzkkklD",
"zkmjhklhzmZFDAZzgg@ o556wrw+.$ggzkzmDKDZxcxkghMDGU",
"zzkhlgazmSLPDZZ@@@   oo=wrq+ @gkzzZPKDzZzzclgZDLGS",
"zggsanlSTLGZmZn       X+qrq+ $VKDPLGSzzmgzxzDGGZmm",
"laulmNKUDSSjjglX XoOo++,qrq+ $DKLDmjzzNjljkSLDZNlj",
"kilmSUPmZjzzzzzX o555tee945oX@mmmzmjmzzjhlZPDNZzzm",
"nmSGPGFmmzzzjllX o578rre477o @jmmzmjjjjzNSUDvzckll",
"SGLFSZzmzZzghjz. o558tqq655o @jmjjjkjzjzKUZNczzzlk",
"ULFZFzlzjzgzkkk. XoOo+++oooX @jgjjkjzmZUUZvczzNzlf",
"ZZzZmzzzhhkgigmX            X@kjzmhlZUUGZZZjjzjlkl",
"mmjZjmzggkzmNSIX X ...XX    X@jmjzmATGZzmmzzjkkpmZ",
"zmmzzzmjlkzSGUUAZZzzljmjzjkzzjmmSFPTFmZzzzhglspVLP",
"mzjjjkjkzZGTUSmzjgjjzlzzmjkzmmmFTTKNZZzzzzzMllLIPF",
"jmjgjzzFFTRPFmmZmzzjjjjjgmmmmFTTKZZmzmzzmmzmZPPFmm",
"jgzmmmSGRGmmmmjmzzjjzjjjgmmmTRFmZmmjzzmzmFZFUPKZmm"
};
