/* XPM */
static char *result[] = {
/* columns rows colors chars-per-pixel */
"50 50 39 1 ",
"  c #DAAF6F",
". c #D6AE71",
"X c #D9AF71",
"o c #D7B174",
"O c #DEB474",
"+ c #DFB678",
"@ c #DFB879",
"# c #E0B26E",
"$ c #E3B675",
"% c #E5B977",
"& c #E8BA76",
"* c #E3B778",
"= c #E5BB7B",
"- c #E9BD7C",
"; c #E7C07F",
": c #EBC17E",
"> c #F0C27F",
", c #E6BE80",
"< c #E9BF81",
"1 c #E7C182",
"2 c #ECC382",
"3 c #EFC886",
"4 c #EDC789",
"5 c #EEC98B",
"6 c #F1C684",
"7 c #F2C986",
"8 c #F0C788",
"9 c #F2CC8C",
"0 c #F8CD89",
"q c #F5D08F",
"w c #EFCD91",
"e c #F2CE91",
"r c #F5D294",
"t c #F8D595",
"y c #F6D599",
"u c #F9D799",
"i c #F7D89E",
"p c #F9D99C",
"a c #FADBA2",
/* pixels */
"%-%39tq9>;;;&;;;&@@=3qyq773:6;;-=2;%;%;%=70rur9882",
";2ry9>&&;&;#$%&;:5ryq93:6:::--:::++++*30yyy9622:--",
"yr72:;;;@@;;=3ryqq2:;3;;=;:;==-%*=;3tyit962;-<-:==",
"=%:--;&O;;3qt93>;3::;==%2;:%;%1;3rrtr32;2-:=1----:",
"=;;;$%=23tq9:>;&;;;;=;;;===:2wyryr26;2;:;-=;---229",
"%%%@;;wrrq2:3&:;&;;;%;;1wrtyr599727;2;==:--:%;7rpr",
";=2rrr93>;;;;:;;#;;29wqe522;;:;;=;::;&;%-2=39ry982",
"er5r522=#;;%;;;;1qprw3322;:;;%:;2&-;=-;;29quy96;2=",
"959;;%;;%; O;29erq2;;;;%;2;;%;;;2;3;5qqrtyt922:;<,",
"@;;;=;@2=;2eyrw3;;:;;;@:%;@;%2;:35rryreq7211=:-12=",
":;&O;;12wreq2;;2;+%;;;;11;55qqryrw22;:;11=;11%=-12",
";OO;25erw231;2&+%=2&;;25wepr5;222214;@;2-=--1235ry",
"@:3yeq52;:;+;$=;%1;25rq552;=;;1;=*;=;1==1;:95rir97",
"5rr:5;;;O;@@@:;22ryrw5=@=@%1;;=%1==1=2523rrr52422=",
"q32;;@%=;=;25wryw3;;*@O=@@=+=;;;4159rryr5112311*=1",
"3;;=;;;;;595q1==;%%O=%;=*;=;22wwww554;1=1=41=*@,=2",
"==;$+O@125:;2=$%;=;-=-==455rr59,1-=1,=11*=@5,145ee",
"2;O+#%@=52921==,;;;129erw52,,,*===<===,@=44wwewre9",
"@O +=@5yr2628228939r922=14-=-===<$=*4445r9w4999=,*",
"O@+15qq92422-1<=-2-;2==<===$===,245rrr444=@@1;**2=",
"=;2rr7:2;O%;%,%%===%%=-%,=-<25eeew2=1,====<,@=,**+",
";ryr22-=*$=**+,$$O$%%$=-18e992-=2-===*-*o==<=,,==5",
"yq24--*$=O%O%*$$%-;22999986---,-*-====*=1=<2255eee",
"4;+==%=%$$O$%=*89e9r926-%-&===-=$=O=-299eeere59121",
"%-==$%O$%%*2wete76<=--%$%%&=O==$-25er998:->;;*,1*,",
"=*#-%$O$-6rre966<&=<=$X%%%%%%=<6t99222=--==:<-=$2=",
"==-%*=25er067<-$=&&-=$=%===-8ee86--%==%$O-=-$=O%X%",
";:212eeye6<6<=&$&=&$&$-=-eerr8--=-&=%=%$%2;**==$*1",
"877e98e2<<6<=-&=&=&%-67e087:=-6&=--$%=-79928879ewe",
"--<892-%<<&-%%-*%=62eyr66-&--:=&--$=20r95:-29qr037",
"-26&-<%--&&$%=%%=8ey02=:=---%&---23ry92$--;79712=-",
"=2&-<&-2-*#OO*%9y972--&&-:=%:6:>9rrq8;-6--686-22-1",
"<4e9667<>-&O-<ee00--<<--&--<<0r008<6----<607-<&=*<",
"ee76666<-6&<8te768<<6&6660qtt0<6*8=-&$<<6t67=$<=-%",
"96-<&%<==--07e0660<8-66088e0<--&-==-=-<7q0<<=*$%$X",
"-&=8=<%$O=<6r7670<-<--&--<-$----&&=&-7qt8<<&=%%=-7",
"-=<=&%,$-<6007<6&-<&<-&<---$&-=$-=&<9e0<<2==$%<9qt",
"-=*%*$$=<8rt76<-&<<&&-<--&==-&$&--7rr9-7-=<-$7eer9",
"=$$*+*,8ut06<<<$<&&<<&*&*=&%<6999ttr8---%-==09e8<<",
"=OX*<2rte87-&&==-$&$&--,<60eyrqer9-&--<===*9r786*&",
"OX-<9tt<<&-------$$$<<0uuuq006<<<---<--&%=8r028--<",
",<0qtq8<<---&&*&---<0ttt80<0&--<<-<&&-&-28u96&-=&,",
"8rt88<--<6-$*=--&88ttr8<<<-6<---&&=$&-=&9y7>>---**",
"tr800<<-&-&=$$*<<qut90<<<<----&&&&$&-<8tt7->==2--$",
"66-6<--&**$OO$<quae8-<<<-<&$-&-&-,**7tt0666-==&=O*",
"<<-<&<<$$$-<<7ruq0<<<&<&-$#-<<<--&<0aq8<<-==&=*X,0",
"-<----<-<$-8rtt0<<-<&&<&&&&--&<<6qty0<6---%%-OX4qt",
"<-&-&$&&<<qat6<-&&&&<&<<<$&<<<<0uuy<66----=<,,eyt0",
"&<&$---<9aat0-<<6--&&&&<$&<<09uaq<6<-<--<<-<6tt9<<",
"&&&<<<0ta0<<<<-<--&&&&***&<<ua0<<6<<--<-<06qtt98<<"
};
