/* XPM */
static char *result[] = {
/* columns rows colors chars-per-pixel */
"50 50 102 2 ",
"   c #040402",
".  c #130E04",
"X  c #1E1606",
"o  c #171716",
"O  c #271C08",
"+  c #242423",
"@  c gray21",
"#  c gray23",
"$  c #5A441D",
"%  c #644F22",
"&  c #725927",
"*  c #7B622C",
"=  c #414141",
"-  c #4E4E4E",
";  c #535353",
":  c #636362",
">  c #767676",
",  c #7C7C7C",
"<  c #8B6D31",
"1  c #9E7E39",
"2  c #A37F3A",
"3  c #AF8A3F",
"4  c #B28738",
"5  c #B59143",
"6  c #BC9444",
"7  c #BF9C67",
"8  c #BF9D69",
"9  c #A1917D",
"0  c #C19750",
"q  c #CDA24B",
"w  c #D3A95B",
"e  c #E3B354",
"r  c #E8B856",
"t  c #CAA76B",
"y  c #C5A576",
"u  c #D6AE72",
"i  c #D9AF71",
"p  c #D7B174",
"a  c #DEB474",
"s  c #DFB678",
"d  c #DFB879",
"f  c #E0B26E",
"g  c #E9BB68",
"h  c #E2B675",
"j  c #E4B877",
"k  c #E8B976",
"l  c #E3B778",
"z  c #E5BB7B",
"x  c #E9BD7C",
"c  c #F5C25B",
"v  c #E7C07F",
"b  c #EBC07E",
"n  c #F0C27F",
"m  c #FFD07F",
"M  c #838382",
"N  c #909090",
"B  c #9C9C9C",
"V  c #A4A4A4",
"C  c #B9B9B9",
"Z  c #DFB981",
"A  c #DDBD93",
"S  c #E6BE81",
"D  c #E9BF81",
"F  c #E7C181",
"G  c #ECC382",
"H  c #EFC886",
"J  c #EDC789",
"K  c #EEC98B",
"L  c #F1C684",
"P  c #F2C986",
"I  c #F0C788",
"U  c #F2CC8C",
"Y  c #F8CD89",
"T  c #F5D08F",
"R  c #E4C494",
"E  c #EFCD91",
"W  c #E6C99E",
"Q  c #F2CE91",
"!  c #F5D294",
"~  c #F9D595",
"^  c #F6D599",
"/  c #F8D799",
"(  c #F7D89E",
")  c #F9D99D",
"_  c #FBDBA3",
"`  c #F6D5A9",
"'  c #FEDFB2",
"]  c #FFE4BF",
"[  c #C0C0C0",
"{  c #DEDEDE",
"}  c #F4DDC2",
"|  c #F9E1C3",
" . c #FFE8C7",
".. c #F2E1CC",
"X. c #FFEACE",
"o. c #E9E2D9",
"O. c #F9EBD9",
"+. c #FEF0DC",
"@. c #E4E4E4",
"#. c #FFF3E5",
"$. c gray96",
"%. c white",
/* pixels */
"j x j G T ~ T U b b v v g z v k j a d v H T ^ ! P P H b L v v z z G v j v h z h v L T ! / ! U L L G ",
"v G ! ^ U n k k k v b a h h v v b K ! ^ ! X.m _ ` m m b b k b b b s s s s z H T ! ^ ^ T L G b G F x ",
"^ ! L G b v v v v a v v v U T ~ T H H b  .t 5 ~ } c * Y R z v h z z v K T ^ ( ~ T G b v x D x b z x ",
"z j b b b b j a v v H Q ^ K H G v H v ] 8 $ 2 g 9 c X * K O.G b G ! ! ~ ! H L b G b v k F x z x D x ",
"j v v v h h j F H ~ T P n G b k v v v ` 2   1 e & c X   r #.! Q ^ T G L b b v G v x x x k v v G G U ",
"v j d d v v Q ^ / P H v H k b v k @ | y &   2 e & r X   3 W #.@ H K L v G v z z v x b b j v H T / ! ",
"j v J Q ! Q U H n v b v v v v v | ] 7 %     & 5 6 5 .     1 W ] +.z v G v x v j x G v G K ~ ! ! I H ",
"Q T K ! H H G z a v v ..........6 0 $         % 5           3 q R X.X.X.X.z k v L L T ( ^ U L b F z ",
"U H P v v d b j v v a O.A 4 4 4 O                               < q q w ' K T ^ / ^ ! U G F v x D z ",
"d v v v j v d H j d J ! @.M               : N N N N N +             = V ! ^ E Q H G F G z G x G L z ",
"b b v a v v v G Q ^ Q Q G o.> > o     : > [ $.$.$.$.$.M > #     - > B H F G F F F x F F G l j x x H ",
"v a a v G K E ! U v H v z H h @ > : : { $.$.$.$.$.$.$.$.$.B : : C @ F F F a z H x j z x F G H H ! ^ ",
"d v H ! ! Q K H v v v h v a z @ V $.$.$.$.$.$.$.$.$.$.$.$.$.$.$.V @ z S z F S l F v G K K ! ( ! K J ",
"H ! T H K v v v a v a s d G v @ V $.$.$.$.$.$.$.$.$.$.$.$.$.$.$.V @ z F z G K G H ! ^ ! K H F K G z ",
"T H G v v d j j v v v H K E E @ V $.$.$.$.$.$.$.$.$.$.$.$.$.$.$.V @ K E ! ^ ^ ! K F F H J F S z z S ",
"H v v d v v v v v H K K T G v @ > @.C ; ; ; $.$.$.$.$.; ; ; [ { , @ K K G F F z G S G z z d s F x H ",
"z z v j h a l F G K x x G S h @ , [ ; @ @ @ @ { { { @ @ @ @ ; [ , @ s G S z F F z S d J S F G J U ! ",
"F v a s a h d z K G K G F j z @ , N ; @ @ @ @ { { { @ @ @ @ ; N , @ S z z z F d z F J E ! ! E ^ Q U ",
"j s a a z h K ^ E G L L L L H J @ [ $.@ @ @ ; $., $.; @ @ @ $.[ @ l l z J J J J Q U E K K I I z z z ",
"a d s F K E T U H H H F x F F z @ , [ N ; ; $.V ; V $.; ; N [ , @ J U ! ! ! J J H v d l F F z l F z ",
"d v H ! ! L G G v a j v j z x l x @ ; , $.$.$.$.$.$.$.$.$., ; @ Q U J z G S z z S z D z d z S l d s ",
"b ! ^ ! F H x z z a z j l s z h h a @ @ @ [ , N , N , [ @ @ @ z F x j z j h F l i z S x z S z z z K ",
"^ Q G F x x j h x p h a l h h h j x ; ; ; @ [ $.$.$.[ @ ; ; ; x z D l z z z j j F z D J G K E E Q Q ",
"H F l z z j z h h h h h l z z J U @ ; V $.{ @ @ @ @ @ { $.V ; @ h j a x F G Q I Q Q Q Q Q K U G G F ",
"j x j x h j a h l h z F U Q ! Q L @ ; ; ; ; ; V V V ; ; ; ; V { ; H K Q ! U U J b v L v F j F F l S ",
"z l f F d a h l x L ! ! Q U L L ; { V %.@ @ @ { $.{ @ @ @ %.@ $.; U U G G G x x v j j G x D j h G z ",
"z k x h u z G J Q Q U L U D x h ; $.@ ; V $.{ ; V ; { $.V ; %.@ ; x x h j x l h h x z z h j a h p j ",
"F v G G Z Q Q ^ Q L L L x x k h ; @ %.; ; ; ; ; $.; ; ; ; ; %.; { ; k x j j j h j G z l z x z h h F ",
"I U I U J J Q D n G L D j x x x ; @ %.; { $.{ @ { @ { $.V ; @ [ $.; x h k x x L U U G L L I U ! E ! ",
"x x D H I H x h x D h j j h x ; { ; %.; ; ; ; ; @ ; ; ; ; ; %.@ ; z h z b U ! Q K b x G L ! ^ U H L ",
"x F L x x n x x x x h h j j j ; $.[ @ ; N { V ; , ; V { N ; ; N , @ H ! ~ U G h x x D U Y I G G j F ",
"x D k x D k x D x l h h a j j @ ; ; %.%.; ; ; V [ V ; ; ; %.%.@ ; @ ! ! L v x L x b b L L x D G x F ",
"x H Q I L L U L x k x i x G U ; $., @ %.%.%.@ , , , @ %.%.%.%.; N N ; L x x x x x L L I b b h x l D ",
"Q Q U L L L L x x L k x I ! Q @ ; @ @ ; ; - ; V [ V ; ; ; ; %.@ ; ; N ; k k D L L Q L L x a x x x h ",
"U L x G x l D x k x D U L ! U ; N $.; [ { [ N ; , ; N [ { [ ; ; N ; N ; h x L I Q Y G x x h h l h a ",
"x h x L j x l h h x D L U U L @ ; ; @ { ; ; ; N ; N ; ; ; { ; z ; ; ; l x L Q U U D D x j l z j z U ",
"x x D x h l z l j D L Y Y P L ; [ N $.; [ [ ; ; z ; ; $.{ @ ; k x j x D U ! U L b b z j h l F K ~ ~ ",
"x h l l z h a x D I ! / U L L k ; ; ; ; ; [ @ x D k @ [ ; @ h l x S L ! Q U x L v x F x h U ! ! Y L ",
"x l h s a z z I ) ~ Y L D L S h D k k @ [ ; @ l l k @ { ; L U U U ~ ~ T I x k G h x v z U ! U L J D ",
"x i i z S G ! ~ Q I L x k h l k D h k ; { { @ k D @ ; , @ ! T Q Q U D k x x L l j x l I ~ I L G l l ",
"a i z D U / ~ D L x x x x x x k D l k h @ @ ; _ / @ { { ; L L D D x x x D x k x l j L ! Y G L x x D ",
"S D Y ~ ~ T L L x k x x x k l x k x x D @ , @ Y I P @ @ ; x x D D x x k k k k x H I / U L j x x z z ",
"I Q ! L I L z z D x x h l l k x k Y L ; ; @ ; ; L x ; o.; x x x k k x h x x l x U / L G n x x x k l ",
"~ ! Y L Y x D x x x k x h l h D D T ; , , , , , ; x ; $.; k k k k k h h x D I ~ ~ I n b x x F x x a ",
"I L D n D z D k l z l h a h G U ) _ ; ; ; ; ; ; ; D @ { @ k x k x x l z L ~ ~ Y L L L x z x x z l l ",
"D x x L k x x k h l z x G I T ) T Y D D x x D k x ; ; @ ; ; D x x x D U _ Y L D D x x x k j a u x I ",
"x D x x x x D k z h x I Q ~ ~ U D Y k D x k D x ; , V $.{ V ; k I Y ! ~ Y D L x x x l h x s u K ! ~ ",
"D x k x x h k l x L Q _ ~ Y D k k k k k x k x x ; ; ; ; ; ; ; Y ) ) Q L P L x x x x S D z z Q ^ / Y ",
"k D l h k x x L Y / ` Y Y D D L D x D k k k x k f D D D Y D ^ ` Q L L D x D x x D D x D L ~ ! Y D D ",
"k k k D D D Y ~ _ U P D L D k D x k k k k k k k h D D D ~ ' Y L L D D k x x D x D Y P Y / ! T I x D "
};
