/* XPM */
static char *result[] = {
/* columns rows colors chars-per-pixel */
"50 50 47 1 ",
"  c gray21",
". c #535353",
"X c #7C7C7C",
"o c #DAAF6F",
"O c #D9AF71",
"+ c #D7B174",
"@ c #DEB474",
"# c #DFB678",
"$ c #DFB879",
"% c #E0B26E",
"& c #E3B675",
"* c #E4B877",
"= c #E8B976",
"- c #E3B778",
"; c #E5BB7B",
": c #E9BD7C",
"> c #E7C07F",
", c #EBC07E",
"< c #F0C27F",
"1 c #909090",
"2 c #A4A4A4",
"3 c #E6BE81",
"4 c #E9BF81",
"5 c #E7C181",
"6 c #ECC382",
"7 c #EFC886",
"8 c #EDC789",
"9 c #EEC98A",
"0 c #F1C684",
"q c #F2C986",
"w c #F0C788",
"e c #F2CC8C",
"r c #F8CD89",
"t c #F5D08F",
"y c #EFCD91",
"u c #F2CE91",
"i c #F5D294",
"p c #F8D595",
"a c #F6D599",
"s c #F9D799",
"d c #F7D89E",
"f c #F9D99D",
"g c #FADBA2",
"h c #C2C2C2",
"j c gray87",
"k c gray96",
"l c white",
/* pixels */
"*:;6tptq<>>>*>>*>@$;ttapqq7,q,>*>6;;>&,&>0etspew06",
">6ipq0=;>>,%&%>>,7ia       <>>,,,@@$@;6eaaat67:64;",
"ai06>,>,&&>>,etpye  .XXXXX.  >>&*;>7iadpt<,>:::,;:",
";*,>:>*@>>7yi97<  .XhjkkkjhX.  ,7iiaa77,6,>:5::>4:",
">*>>&&;67pte6<, .XhkkkkkkkkkhX. at7<,,>,>;;,=>>,6e",
"&>&$,>yipe6,7>> XhkkkkkkkkkkkhX 077,,>>*,:,,&>0iap",
">>7yiie7<>>>>, .1kkkkkkkkkkkkk1. >>,>,$>:,;0eiatw7",
"ty9i966;%>>>>& XhlkkkkkkkkkkklhX =;>=;>>6epaae0>6=",
"e7q>>*>>$>o@>6 1kkkkkkkkkkkkkkk1 ,9>9teaaaie6>>:3;",
"$>>>$;;6>;6yai 2kkkkkkkkkkkkkkk2 9iiiiiy0755:6:>63",
",,>@>>>6yaty5> 2kkkkkkkkkkkkkkk2 9866>665:>5>=;,:7",
">@@>69iat,7>>7 2kkkkkkkkkkkkkkk2 5585@;6;=;:>887ia",
"@>7iit96>>>&>@ 2kkkkkkkkkkkkkkk2 $;5;>3-5>,88idi98",
"9ii,9>>>@>$$$< Xjh...kkkkk...hjX >;5;8768aai98676;",
"t77>>$**>>>,ey Xh.    jjj    .hX 599iiai8557833;;3",
"7>>$>>>>>79ey5 X1.    jjj    .1X i88855;8;8;;$#3:6",
";>>@@@$668>:63& hk   .kXk.   k2 5,-6;;55-;$93588uu",
"6>@$@&$;87q65=; Xh1..k2.2k..1h1 ;;5;;33$;88yiiyaue",
"$@@@;*9ai6677778 .XkkkkkkkkkX. ;3&;-8889uey88qq;3-",
"@$@58tte8876:;5;=   hX1X1Xh   ;>689iii887>$$55;-5;",
";;7ai0,6;@*>=;;-*... hkkkh ...uui97;63=;;;53$;3-=+",
"5iii>7:;;@;--#;& .2kj     jk2. ;6>=;--5;@;;4;3;;;y",
"at85>,=&;@&@---.j2....222....2j.->--;;=-3;46699yeu",
"85&;--;&&&&&=;;.k l   jkj   l k.&-&;>8e8uyuiu9u675",
"*;-:&*@&-&;5eui. l.2kj.2.jk2.l .:69uiee8,:0>5-45=3",
"-=%5*@&&:0iiue0. l.....k.....l .pee656:4>-=,4;;&6;",
"3*:&;=68uue0q4.j.l.jkj j jk2.l.j.,,&:=-&&:;>&=@-O=",
"5,668uuau0006=.kh ..... ..... hk.:=;&=;&*5;-;;=-#5",
"qqwu98u6,604=.k. =.1j2.X.2j1.: .k.:&=;:0ee60qeeiuu",
"::4wq8:&:6&;- Xk.=7...2h2...::.kX &;6eie86=7qeie08",
":60=:4=::=&*- . ;7uae XXX ,**=: . 8tae6=::5qeq56;4",
";6=:4=:6:-&@.k1.ae....2h2....0>.1k.i0>:04,600:66:5",
"37uq00w6::;.h.. r.hjh1.X.1hjh.t ..h.:;4::00w:6&:-4",
"uue00706:0=.k1h.0.j...1.1...j.4.h1k.==400t00=-4;;&",
"u044==4:=:0q...00. jk..r..kj .::...:=;0wir04:&&-&&",
";==0=4-&&-:0rw00r4 .h -:: h. :=;::=::0uiw44==-;=;e",
":=4=--;--40req04=:4.j ::: j.=::&:=:4eur4>6;=@-59ip",
"4=--;&@;4wise00:=:: k ::: k.==&=;:wuie:0::5;&eiirw",
"4&&-@3;wfpr0403&4: h. :-- .h 0eeeiprw4:0&::;eie084",
";OO;46iprw0:=&-=:%.jj :;4 jj.puuir4:=;4=;=-eiq06-=",
"-O:4esp46::::::::-=  .rps.  r004444=4::=-;0ir60:;4",
"34wtprr44;::=;===::.j.spr.j.:::44=4=::=:7wse0*:;=:",
"wupqw4:440:--=;:=q0.k.w:0.k.:=:::==-:&=;es06,:::;-",
"sirqr4;:=:&=-&*44us j 44: j ::==:==-::wppw<,::64;@",
"004:4:::-;-&O&4tsg.. ..4.. ..:4==4-;0ppr000:=;;;&-",
"4::0=4:&&-;:0wisp.2jk2X.X2kj2.4:==4rfpw404=:==#O4w",
":40:=::=:*:wtspw4......=......440eppr40:::-&:#+8ip",
"4===:&=:44ugpq4:=-==:=::4*-:444rsgi600:::=;43;uapr",
"=4--=4:refgpr4444::=====&4444rffuwq::4:::4:40ppr44",
"===444rtgr4444:4::==:===&444fgr4444:::4:4rrrsiuw4:"
};
