/* XPM */
static char *result[] = {
/* columns rows colors chars-per-pixel */
"50 50 48 1 ",
"  c gray21",
". c #535353",
"X c #7C7C7C",
"o c #DAAF6F",
"O c #D6AE71",
"+ c #D9AF71",
"@ c #D7B174",
"# c #DEB474",
"$ c #DFB678",
"% c #DFB879",
"& c #E0B26E",
"* c #E2B675",
"= c #E4B977",
"- c #E8B976",
"; c #E3B778",
": c #E5BB7B",
"> c #E9BD7C",
", c #E7C07F",
"< c #EBC07E",
"1 c #F0C27F",
"2 c #909090",
"3 c #A4A4A4",
"4 c #E6BE81",
"5 c #E9BF81",
"6 c #E7C181",
"7 c #ECC383",
"8 c #EFC886",
"9 c #EDC789",
"0 c #EEC98A",
"q c #F1C684",
"w c #F2C986",
"e c #F0C788",
"r c #F2CC8C",
"t c #F8CD89",
"y c #F5D08F",
"u c #EFCD91",
"i c #F2CE91",
"p c #F5D294",
"a c #F8D595",
"s c #F6D599",
"d c #F8D799",
"f c #F7D89E",
"g c #F9D99D",
"h c #FADBA2",
"j c #C2C2C2",
"k c gray87",
"l c gray96",
"z c white",
/* pixels */
"=>=7yayr<,<,=,,<*#%,0yayww7<1<<-:7>-,;<;,7yydaree7",
",7psr1--=<<&=&,,<8pay00<w<<<<,<<,%%#%:7yassy777>7>",
"spq7<,,,%*,,,riayr7,18<7,,<,=,,%;:,8ysfsy7<,>>><->",
":=<<<<=#,,8yar<8<8<<,       ,%<,8ppap87<7><>7,:>4>",
",,,,**=78ayr11<<,,1  .XXXXX.  ppsyqq<,,<,-:<><,<7r",
"===#,,uppr8,8*<,,  .XjklllkjX.  788,7,,=<><<;<8psp",
",=8uppr8<,,,,,,, .XjllllllllzjX. ,,<,-%,>7:78ppye8",
"pp0s876,&<<,,*%, XjllllllllllljX ->>>,,,7rassr8<6:",
"00w,,=,::,O#,7r .2lllllllllllll2. 0,0yrassar76,>5:",
"%,,,=,%8=,7papu XjllllllllllllzjX upsapiq756>7>7e:",
"<,,*,,,8ippu6,: 2lllllllllllllll2 9866776>,66;:,>8",
",#&,70upy,8,,8= 3lllllllllllllll3 66,#%7,:>>6778ps",
"#,8ppi07,,,%,*: 3lllllllllllllll3 :4:66;6:7r0pfp09",
"rpy80,,,#,%%%<, 3lllllllllllllll3 :6:7098ppp08707:",
"i87,,%==,:,70up 3lllllllllllllll3 0puspp86698:4::4",
"8,,%,,,,,8r008: Xkj...lllll...jkX 907664747:4%$4>7",
"::,###%678,,64* Xj.    kkk    .jX %74:66;4%04670ip",
"7,###;%608q76-: X2.    kkk    .2X 4:::4%:69uupusie",
"%%#%:;0pp7<qee89 jl   .lXl.   lj ;;:9990iru0er8>::",
"#%#60yyt9787>,6: Xj2..l3.3l..23X 90ppp907,%;64:$4:",
"=:8ppq<7,#=,-::;, .Xllllllzzz2. p09:7:;:6:44$:4;;@",
",psp,q<::#:;;$:**o   jX2X2X3   ;6>-::;6:O:4>4::::u",
"su86,>=;:#;&;=;*=<... jlllj ...>:5;:-:-;6:79790iii",
"86;:==:;;*#;;;:90 .3lk     kl3. #-#:,9i0iiiiir0976",
"-:=>*-#*;*:6ripiq .....333....3k.8ripre8<><,,;:6-4",
";-&,=#*#>epprrqq.k3z   klk   z l.rr677>5,=>7,5:;7:",
"4=>;;;78iirqr7>*.l .3lk.3.kl3.z .><*--;**>::*-#;@;",
"6<778iifiq7q7-=*. z.....l.....z.k.=>=:-*=6>;::-**7",
"ewer09r775q5->>>. z.klk k kl3. jl.:*-->err78q8rp0p",
">>5ere>=>7--;=-.k.z..... .....z .-;:7tpre7>7qrpp88",
">7q>>5;>>-===-=.lj .2l3.X.3k2..2X 8ps07=><>wrt67:,",
">6->>->q>**##;; ..zz...333...zz . ppq6>q><7qe>77>5",
":9ieeeq11>>+>7r.lX zzz XXX zzzz.22.q5-5-5qte><=:;5",
"pirqqqe>>7=7eai .  ....3j3....z ..2.-=q7eyeq=*>>>*",
"i8>7-->>->7wepr.2l.jkj2.2.23kj..2.2.->qeir7>:;*;**",
"---q;5;**-57rwq .. k...2.2...k.>...;-eriw75-:;:-:r",
">-5-=;4;-5qrtt7.j2l.jj..>..lk .;>->5rirq6<:-*;,0ia",
"5>;;:*#>5epaweq>.....j >>; j. ;->4wpir>e>>6>;eypyq",
":;*$+::egatq5q:*5;- j. ;;- k.qreraaye5>>=>,:yyy85q",
">+O:5epaieq>-*:->&*.kk >5 .X pyiir5->-q-:-;epeq7:;",
"##-5iap>5>>>>>>->;-*  .ga kk.qq55>>>5->-;:qpt7q>>5",
":5eaayeq>>>>--;>>>>5 X ytt  .>555>5-->->7edy7->>;4",
"eppeeq>4>5>-;-->-5q.. ..55.k.-5->-;*>:->rdq<<>>>-:",
"aatqt>>5>>->;;;5tt.XXXXX.5.l.-----*->5eade1<>>6>-*",
"eq515>>-;;;*#=5tgh.......5 k -5->>;:qsatqqq>>:-4*;",
"5>>q-5>*-;>55epgat555>5->.. ..5-->5ehyq5q>->--$O5e",
">>>>>>5--;>epdae55>5>-5-.X3lk3.5etaaeqq>>>;=>$@9pa",
"5>->-;-;>qigaw>>---->->>.......tggpqqq>>->45::isat",
"-5;-;>-eeghyt555q>>-----*-555rdhi5q>5>>>55>>eapt55",
";--55qtahte555>5>-->--;-*55tdht55q5>>>5>5tttapye55"
};
