/* XPM */
static char *result[] = {
/* columns rows colors chars-per-pixel */
"50 50 107 2 ",
"   c #040402",
".  c #130E04",
"X  c #1E1606",
"o  c #171716",
"O  c #271C08",
"+  c #242423",
"@  c gray21",
"#  c gray23",
"$  c #5F4B20",
"%  c #644F22",
"&  c #6C5324",
"*  c #725927",
"=  c #7B622C",
"-  c #414141",
";  c #4E4E4E",
":  c #535353",
">  c #636362",
",  c #6F6F6F",
"<  c #767676",
"1  c #7C7C7C",
"2  c #8B6D31",
"3  c #9E7E39",
"4  c #AF8A3F",
"5  c #B28738",
"6  c #B58938",
"7  c #B59143",
"8  c #BC9444",
"9  c #BF9C67",
"0  c #BF9D69",
"q  c #A1917D",
"w  c #CDA24B",
"e  c #D3A95B",
"r  c #E3B354",
"t  c #E8B856",
"y  c #CAA76B",
"u  c #D0A96F",
"i  c #DAAF6F",
"p  c #C5A576",
"a  c #D6AE71",
"s  c #D9AF71",
"d  c #D7B174",
"f  c #DEB474",
"g  c #DFB678",
"h  c #DFB879",
"j  c #E0B26E",
"k  c #E9BB68",
"l  c #E2B675",
"z  c #E5B877",
"x  c #E8BA77",
"c  c #E3B778",
"v  c #E5BB7B",
"b  c #E9BD7C",
"n  c #F5C25B",
"m  c #E7C07F",
"M  c #EBC17E",
"N  c #F0C27F",
"B  c #FFD07F",
"V  c #838382",
"C  c #909090",
"Z  c #9C9C9C",
"A  c #A4A4A4",
"S  c #B9B9B9",
"D  c #DDB880",
"F  c #DDBD93",
"G  c #E6BE81",
"H  c #E9BF81",
"J  c #ECC383",
"K  c #EFC886",
"L  c #EDC789",
"P  c #EEC98B",
"I  c #F1C684",
"U  c #F2C986",
"Y  c #F0C788",
"T  c #F2CC8C",
"R  c #F8CD89",
"E  c #F5D08F",
"W  c #EAC591",
"Q  c #EFCD91",
"!  c #E6C99E",
"~  c #F2CE91",
"^  c #F5D294",
"/  c #F9D595",
"(  c #F6D599",
")  c #F9D799",
"_  c #F7D89E",
"`  c #F9D99D",
"'  c #ECCFA2",
"]  c #FBDBA3",
"[  c #F7D6A9",
"{  c #FFE4BF",
"}  c #C0C0C0",
"|  c #DEDEDE",
" . c #F6DFC3",
".. c #F1DEC8",
"X. c #F9E1C3",
"o. c #FFE8C7",
"O. c #F3E1CC",
"+. c #FFEACE",
"@. c #EBE4DC",
"#. c #FFEBD0",
"$. c #FAECDA",
"%. c #FEF0DC",
"&. c #E4E4E4",
"*. c #F7EDE0",
"=. c #FFF3E5",
"-. c gray96",
";. c white",
/* pixels */
"z b x J E ^ E U K m x x x m m x m f h m L ~ +.B ] [ R B I m m b m M m z m l m z b I T ^ / / T Y U J ",
"m J ^ / T K x b m x m l l l z m m P ^ / ^ o.y 7 /  .n * R P M M M h h f h v J E ( ( / E J L m M H b ",
"( ^ I J M b m m z h m M m P E / E U K m  .0 $ 3 k q n X = P $.l z h m K ^ ( ` ^ T I M m b v b M v H ",
"v z M m b m z f m x K Q ^ T K K M K M M ' 4   3 r * n O   t =.J K ^ ^ / ^ K I m J M m b J b b m b b ",
"z x m m l z z J K ( E E J K m m m m b X.p &   3 t * t X   3 ' =.^ E K I M M m M m x b b x m b m J T ",
"m m l h m m Q ^ / T J M K k m m v {  .9 &     * 7 8 5 .     3 ! { %.K m M m m z M b m M z m K ^ ( ^ ",
"m z L Q ^ ^ E K M m m m O.O.O.O...8 8 $         % 7           4 w F +.o.+.#.m l b J v I T ^ ^ E I L ",
"^ ^ P ^ K J J v l m m v *.F 6 6 5 O                               2 w w e { m m J T ^ ) ( T I J J v ",
"P P K m m z m v v m i f m &.V               > C C C C C +             - A P E ( ( ( ^ P I m m b H v ",
"h m m m v v h K z m J ^ ( ^ @.< < o     > 1 } -.-.-.-.-.V 1 #     ; < Z ( ( Q Q K J J J v J b m L x ",
"M m m j m m m L Q ( ^ Q J z m M @ , > > | -.-.-.-.-.-.-.-.-.Z > > S @ J J m J J J v J G m x v b m L ",
"m f f m J K Q ^ T m K m m K x h @ A -.-.-.-.-.-.-.-.-.-.-.-.-.-.-.A @ J m f h K v v x b m L L P ^ ( ",
"f m K / E E P K m M m h m f h m @ A -.-.-.-.-.-.-.-.-.-.-.-.-.-.-.A @ m m m m z J m J P P ^ _ E T L ",
"K ( ^ m P m m m f m f h h N m L @ A -.-.-.-.-.-.-.-.-.-.-.-.-.-.-.A @ J h L K L K Q ( ^ P K J P J v ",
"E P m m m z m v m z m K P P ^ ^ @ A -.-.-.-.-.-.-.-.-.-.-.-.-.-.-.A @ P Q ^ ( Q P L J L L m G h v m ",
"K m m m m v h m m P T P Q K v m @ 1 | S : : : -.-.-.-.-.: : : } | 1 @ P L J J h J h J v v h h J v J ",
"v m m l f f h L J P m m L v l c @ 1 } : @ @ @ @ | | | @ @ @ @ : } 1 @ J G v J m h v h P G J L P T ~ ",
"J m d f j l h v P I I J m v v v @ 1 C : @ @ @ @ | | | @ @ @ @ : C 1 @ h v v m h v J L Q Q ^ Q Q ~ T ",
"l h d h v h P ^ ^ J M I J K L L T @ } -.@ @ # : -.1 -.: @ @ @ -.} @ v v L L W P ^ P Q P K T P J G c ",
"f h f J P E E T L K L J m m J v v @ 1 } C : : -.A : A -.: : C } 1 @ P ^ ^ ^ L P L v h h m m c c J v ",
"v v K ^ ^ K m J v f z m x v v x v v @ : 1 -.-.-.-.-.-.-.-.-.1 : @ P P v L v v v m v G v h v G c h f ",
"m ^ ( ^ J K b v v f v c c g v l l f l @ @ @ } 1 C 1 C 1 } @ @ @ J v z x c l J c f c G G v G v v v P ",
"_ P L m m b x l m f l j c l l l x b J : : : @ S -.-.-.} @ : : : x J c h x v x c J v J J L L P Q Q Q ",
"L J l v x l v l l l f c c c v L P ^ @ : A -.| @ @ @ @ @ | -.A : @ v f v m L T P P Q ~ ^ ~ P T J L J ",
"z v l x l D f l c l v J P ~ ^ ^ I : | A : : : : A A A : : : : : @ J P ~ ^ T T L M m I m m c G J c m ",
"z v j J v u f l b I ^ ^ ~ T I I J : -.@ ;.@ @ @ | -.| @ @ @ ;.A | : T J J J v J m c x M v G x c J v ",
"v z b l v a J P ~ ~ T I T H b l v : @ ;.: A -.| : A : | -.A : @ -.: b l b x c c l x v b l v f l i l ",
"J m J J L P ~ ( ~ I J I M v x l : | : ;.: : : : : -.: : : : : ;.@ : x b l x x f z J m l c m x l f J ",
"T U Y ~ P Y ~ J J b I H x b b v : -.} @ : A -.| @ | @ | -.| : ;.@ : x l x v b I T T J I I P T ^ P ^ ",
"x b H Y T J b l b J x v c l b l x : @ ;.: : : : : @ : : : : : ;.: | : v J T ^ T P J b J T E ^ T P P ",
"b J I x b H x b b x z z z x x c @ 1 C : : C | A : 1 : A | C : @ } -.: ^ ( T J x b b m U T U M J v m ",
"v J x b H x b J b l l f f c x P @ : @ ;.;.: : : A } A : : : ;.;.: : @ ^ I m b I b M J I I b J m b J ",
"G L ~ U Y I U I b x b s b J T : C C : ;.;.;.;.@ 1 1 1 @ ;.;.;.@ 1 -.: I b b b x H I I T b J l b v G ",
"~ ~ T U I J Y H b I x H T ^ : C : : @ ;.: : : : A } A : : : : @ @ : @ b x l I I I ~ I I x f b v b l ",
"~ I b H x x H b x H J U U ^ : C : C : : } | } C : 1 : C } | } : -.C : b l b I I ~ T I H b l z c l f ",
"b x x I x b c l l x H I T Y J : : : b : | : : : C : C : : : | @ : : @ x b I ~ ~ T H b x x c v x v T ",
"b x H x l v G c c H I R R U I H x b H : @ | -.: : b : : } } : -.C } : H T ^ T I J m v x f c J P ^ / ",
"H x c v v l s b H Y ^ / U I I b x H H l @ : } @ v c b @ } : : : : : U ^ ^ U b I b v J b l T ^ ^ R I ",
"v c l f s v v Y ` / E I H I G l H x x H H : | @ c x c @ : } @ T T / / ~ Y b b J l b b v T E T K L H ",
"v f a v H L ^ / T Y Y x x l v x b l x l x @ 1 : @ J T @ | | : ~ ^ T b x b b H x v x c T ^ I L J v c ",
"c s v H T ) / H I x b b b b b b b l x l b : | | @ ) E : @ @ I H H b H x H b b x c v I ^ R J I b b H ",
"v H Y E / E R H H b b H x x c x x b b H T : @ @ Y R I @ 1 @ b b I b H x x b x b J Y / ^ J b m x x b ",
"Y ^ ^ R Y H b b b H b l c x b b x Y I / ) : | : H H : : @ : : b x x l c x v x b T ) I M b b b b c c ",
"/ ) R U R b H b b b x x c l l H H E ) ) ~ : -.: b : 1 1 1 1 1 : x x c x b H I ) ( U N M b b J b b f ",
"I I H N H v H x c v l l f l H ~ ) ] R Y b @ | @ b : : : : : : : x H c v U ^ ) R U I I b b b x v l c ",
"H b x I x b b l l c b b J Y ^ ) / E H H : : @ : : x j v H H H b b x J U ] E I b b H x b l x g a H T ",
"b H I b b b H x v l b Y ^ ) / U H H b : A | -.A 1 : x b x l H b Y R ^ ` R H I b b b c l b g d P ^ ^ ",
"H b x x b l x c b I ~ ` ( R H x x x c : : : : : : : x b v H Y R ` ` ~ J I I b b b b v H G v ~ ( ^ R ",
"x H x l x H x U R ) [ R R H H I H b H x x x x H l c H H H T ) ] ~ Y I b H b b b H H b H Y / E R I H ",
"l l v H H H R / ] T Y H I H x H b x x x x x x c c x H R ) ] Y U I H H x b b H b H R I R ) ^ ~ Y H b "
};
