/* XPM */
static char *result[] = {
/* columns rows colors chars-per-pixel */
"50 50 48 1 ",
"  c gray21",
". c #535353",
"X c #7C7C7C",
"o c #DAAF6F",
"O c #D6AE71",
"+ c #D9AF71",
"@ c #D7B174",
"# c #DEB474",
"$ c #DFB678",
"% c #DFB879",
"& c #E0B26E",
"* c #E2B675",
"= c #E4B977",
"- c #E8BA77",
"; c #E3B778",
": c #E5BB7B",
"> c #E9BE7C",
", c #E7C07F",
"< c #EBC07E",
"1 c #F0C27F",
"2 c #909090",
"3 c #A4A4A4",
"4 c #E6BE81",
"5 c #E9BF81",
"6 c #E7C383",
"7 c #ECC382",
"8 c #EFC886",
"9 c #EDC789",
"0 c #EEC98A",
"q c #F1C684",
"w c #F2C986",
"e c #F0C788",
"r c #F2CC8C",
"t c #F8CD89",
"y c #F5D08F",
"u c #EFCD91",
"i c #F2CE91",
"p c #F5D294",
"a c #F8D595",
"s c #F6D599",
"d c #F9D799",
"f c #F7D89E",
"g c #F9D99D",
"h c #FADBA2",
"j c #C2C2C2",
"k c gray87",
"l c gray96",
"z c white",
/* pixels */
"=>:7ypyt<,<,-,,--#%,8yspww8<q,,>-7,;,*,;:qypdarww7",
",7pawq-:-,,***,,<8papwq<q<<<>><<,%%%#:8ysasy776>5:",
"spq7<,,,=#,,,8payy8,<7,:,,<,::>*;:,rpasay1<,>5><:>",
":=<,>,=#,,8yy888,q,,,-       :,,8ppap8q,7>,>7>:>5>",
"-,,,**:78pyy11<-,,,,  .2XXXX.  appq1<,,7,>:,-,,77r",
"::*%<,upar6<8-,,>,  .XjklllkjX.  78,7,::,>,7=<qyda",
",:8uapr81,,,,,,,& .XjllllllllljX. <,<>:->7:qrpsye7",
"yi0p876:&,,=,,:,, XjllllllllllzjX >,>:,,qqpasrq,7:",
"r08,,:,-,,&#,6up .2lllllllllllll2. 70rrpdpprq,,>55",
"%,,,::%6:%6papr8 XjllllllllllllljX spspuq766:7>77:",
"<,,*,,,6iapu7,,, 2lllllllllllllll2 767676>65,-:,>0",
",#&,70ppr<8,,7-% 3lllllllllllllll3 76#:7:-:>6770pp",
"#,8ppi87,,-%,#:, 3lllllllllllllll3 :666;7,700pfp00",
"rpy<0,,,#,*%%8,8 3lllllllllllllll3 6:7779psp07797:",
"i86,,%::,:,80ups 3lllllllllllllll3 iuppp9767764::6",
"8,,,,,,,,8u007:: Xkj...lllll...jkX 076647:644%$4:7",
"::,*##;670,,7:*; Xj.    kkk    .jX 74:64;::04670ri",
"6,##&;%,9qq76::> X2.    kkk    .2X ;::4%:66uupppir",
":##%::0pp7eq7q700 jl   .lXl.   lj -%960uiiu0qr0,4%",
"#%#68uyr7876>66:, Xj2..l3.3l..2jX 0spp907:%:6,;;7;",
"%,7syw<76%=:-4-;-: .XlllllllllX. 00:7:::6:54;:4;;@",
",ppp<q,:;#::;$:**#*   jX2X22j   7>=-:;5;O:454::::u",
"fr87,,-;:&;&**;*=,,... jlll3 ...;6;;::-;6:57790uri",
"7,%:;;:;;*#;;::90p .3lk     kl3. -;:67r0iiiii0i777",
"->*-*;#*;*:6ripiq.k3....333..... 70pprr9<,1,6->6:6",
";:*>-#**>epprrqq,.l z   klk   z3k.r767>5,=:74::;6:",
":->;:;70iirqr5>*>. z.3lk.3.kl3. l.<*---;*-::*;#;o*",
"6<670iisrqqq7--*.k.z.....l.....z .=:*:-#=7>;;>-*;6",
"rwei0ei,<7q5=>>>.lj .3lk k klk.z .>*-->err6q7rrpir",
"->5er71*>7*:;=-*=. z..... .....z.k.-7tprr7-7rtprre",
">7q->5->>-**=-== X2..2k3.X.3k2. jl.rs07->>7wrw67->",
"-6->5->7>;*##-;r . zz...3j3...zz.. pe6>q>>7ee>77:6",
"47ireew11>>+:5r.22.zzzz X2X zzz Xl.q>-5>>qww>7*::5",
"piree7q>>7-6wd.2.. z....333....  . ->-5qqpqq-*5:>;",
"re>>--5>->7wwp.2.2..jkj2.X.2jkj.l2.>-:5eyr5>>;-;*#",
">--e-5;**-57rwe...5.k...2.2...k .. :>wiyr55>--;-:w",
">-5:*;:;:5qttw5q-55. kl..5..jj.l2j.5rpt77>:-#;40id",
"5-;;:*#:5epare>>-5>* .j :-: j.....wiir>w>>6:*rppte",
":*#$*::egptq5q5*5--55.k :;* .j eraate5>>*>:>rprq5q",
">#+:57pdtew>-*:->*-** X. 7t kk.ipr>>::q-:-;0ptq7:-",
"#+:5rda55>>>>->:5;;*>.kk aa.  555>5:5->-;:qpt7q>>5",
"55tyayt55>>>>-*>-->5r.  tqq X >55>5-->->7edy7>>-::",
"9ypee5>>5>>*;->>-teyd.k.55.. ..>--;*>-->rae<1>>>;;",
"psttt>5>>>->***55pddr.l.5.XXXXX.>-*->5qddr1>>>6>:*",
"qq>55>>-:;****5ydhrt> k -.......>>;-qsayqqq>::-4*;",
"55>q-5>***5>5eygyr55.. ..**>55>>->5thyq>q5->--#O>e",
">5>>>>5-:*>epadw5t-.3kl3X.*>-;55qyadt5q>>-;*>#@9aa",
"5>->>*--55pdsw5>---.......->55etggp5qq>>>>45:4isat",
"-5-*->>trhhat55q5>>----5*5555ydhiqq>5>>>55>>eppr55",
"---555eyht5555-5>>------*-55dht5555>>>5>5tttaaye55"
};
