/* XPM */
static char *result[] = {
/* columns rows colors chars-per-pixel */
"50 50 105 2 ",
"   c #040402",
".  c #130E04",
"X  c #1E1606",
"o  c #171716",
"O  c #271C08",
"+  c #242423",
"@  c gray21",
"#  c gray23",
"$  c #5A441D",
"%  c #644F22",
"&  c #725927",
"*  c #7B622C",
"=  c #414141",
"-  c #4E4E4E",
";  c #535353",
":  c #636362",
">  c #6F6F6F",
",  c #767676",
"<  c #7C7C7C",
"1  c #8B6D31",
"2  c #9E7E39",
"3  c #AF8A3F",
"4  c #B28738",
"5  c #B58938",
"6  c #B59143",
"7  c #BC9444",
"8  c #BF9C67",
"9  c #A1917D",
"0  c #C89D49",
"q  c #CDA24B",
"w  c #D3A95B",
"e  c #E3B354",
"r  c #E8B856",
"t  c #CAA76B",
"y  c #DAAF6F",
"u  c #C5A576",
"i  c #D6AE71",
"p  c #D9AF71",
"a  c #D7B174",
"s  c #DEB474",
"d  c #DEB678",
"f  c #DFB879",
"g  c #E0B26E",
"h  c #E9BB68",
"j  c #E3B675",
"k  c #E4B977",
"l  c #E8B976",
"z  c #E3B778",
"x  c #E5BB7B",
"c  c #E9BD7C",
"v  c #F5C25B",
"b  c #E7C07F",
"n  c #EBC17E",
"m  c #F0C27F",
"M  c #FFD07F",
"N  c #838382",
"B  c #909090",
"V  c #9C9C9C",
"C  c #A4A4A4",
"Z  c #B9B9B9",
"A  c #DDBD93",
"S  c #E5BD81",
"D  c #E9BF81",
"F  c #C4BDB5",
"G  c #E7C181",
"H  c #ECC382",
"J  c #EFC886",
"K  c #EDC789",
"L  c #EEC98A",
"P  c #F1C684",
"I  c #F2C986",
"U  c #F0C788",
"Y  c #F2CC8C",
"T  c #F8CD89",
"R  c #F5D08F",
"E  c #E0C295",
"W  c #EFCC93",
"Q  c #E6C99E",
"!  c #F2CE91",
"~  c #F5D294",
"^  c #F9D595",
"/  c #F6D599",
"(  c #F9D799",
")  c #F7D89E",
"_  c #F9D99D",
"`  c #ECCFA2",
"'  c #FBDBA3",
"]  c #F7D5A8",
"[  c #FBDEB2",
"{  c #FFE4BF",
"}  c #C0C0C0",
"|  c #DEDEDE",
" . c #F1DEC8",
".. c #F9E1C3",
"X. c #FFE8C7",
"o. c #F3E1CC",
"O. c #FFEACE",
"+. c #E8E0D5",
"@. c #ECE6DD",
"#. c #FEF0DC",
"$. c #E4E4E4",
"%. c #F7EDE0",
"&. c #FFF3E5",
"*. c gray96",
"=. c white",
/* pixels */
"k c x H R ~ R Y H b n l l b b l b s f b O.M ' [ T M H n P n n x n b n k b k b k x P R ~ ( ^ Y P P H ",
"b H ~ ^ I P l c b l n s j j b b b J ! X.t 6 ^ F v * T W b x n n b f f s f x J Y / ^ / R H H n H D c ",
"/ ~ P H b n b b k f b b b R ! ( ! L { 8 $ 2 h 9 v X * Y +.x b k x f b J R ( ) ^ Y P n b c D c n x c ",
"x k n b c b k g b l K R ~ L H m @ @ ` 3   3 e & v X   r &.@ @ b J ~ ~ ^ ~ H J b H n b l G c c c D c ",
"x b b b j j x H J / R R J P b @ ; ..u &   2 e & r X   2 ` &.; @ / R H P n b b b b c c c c b b H H Y ",
"k k k f n b ! ~ / Y H b J x b ..{ 8 %     & 6 7 6 .     2 Q { #.P H I b H l b b n x b b k n P R ) ~ ",
"b b J ! ~ ~ L J n c o. .o.o. .7 6 $         % 6           4 0 E O.O.O.O.b b b k c H x J L ~ / R J J ",
"! ! L ~ J H G b k b %.A 5 5 4 O                               1 q q w [ c c b b P U ~ ^ / Y P b G x ",
"L L I b b k b b f b y $.N               : B B B B B +             = C b L R L / ^ / / Y H n b n c S ",
"f b b b f b x H k b H R @., , o     : , } *.*.*.*.*.N , #     - , V ! ~ ~ / ! ! P H G G c b c b P x ",
"n b b j b b b K ! / ! ! G b @ > : : | *.*.*.*.*.*.*.*.*.V : : Z @ L K K H b G H G c b G G x x n c K ",
"b s g b H L ! ~ L b J H b K @ C *.*.*.*.*.*.*.*.*.*.*.*.*.*.*.C @ H G G b s b H b x x c G H K J ~ ~ ",
"s b J ^ R R L H b b b f l f @ C *.*.*.*.*.*.*.*.*.*.*.*.*.*.*.C @ f x b b G S z b b H L L R ) ~ Y K ",
"L ~ ~ b L b b b s b k f f H @ < | } ; ; ; *.*.*.*.*.; ; ; } | < @ x x G x H J H J ~ ~ ~ W H H K G c ",
"~ J J b b f k k b b b H L ! @ < } ; @ @ @ @ | | | @ @ @ @ ; } < @ b L W ! / / ~ K G G J H G S x c S ",
"J b b f b b b b b J L L ! H @ < B ; @ @ @ @ | | | @ @ @ @ ; B < @ / K L H b G S H c H S G f f G x H ",
"f x b j j d f G H J b c H S j @ } *.@ @ @ ; *.< *.; @ @ @ *.} @ G c z H c x H G x x S K S G H L ! ~ ",
"H b s f g z f x K J P H G z x @ < } B ; ; *.C ; C *.; ; B } < @ x x G x x x S f x G K W ~ ~ ~ W ! U ",
"k f s s f x L ~ ~ G H P P J H L @ ; < *.*.*.*.*.*.*.*.*.< ; @ c G k z z K G L L ~ L L L P Y L b c f ",
"s f f G K ! R Y H J J H b b b c c @ @ @ } < B < B < } @ @ @ x c H K L ~ ~ / K L H b f f b b z f G x ",
"f b H / ~ P n H G d k c x x l z c ; ; ; @ } *.*.*.} @ ; ; ; W W ~ L K x G S x x G x D x f x c d z d ",
"b ~ ~ ~ b J c c x d c z z d c j @ ; C *.| @ @ @ @ @ | *.C ; @ x H c x x c z c z i x S D c S c x x L ",
"/ R J H c c x j c g k y j z j ; | C ; ; ; ; C C C ; ; ; ; C | ; j c z z x x x k G c S H H L L W ! ! ",
"H b f x x j x k d d s k z x x ; *.@ =.@ @ @ | *.| @ @ @ =.@ *.; j x d c b H Y L ! ! ! ~ ! L W H H G ",
"x c z S j k s j z j x G Y ! ^ ; @ =.; C *.| ; C ; | *.C ; =.@ ; c H L ! ~ Y U L n c H b b z D G z G ",
"x z g d x s j s c P ~ ~ ! Y P ; @ =.; ; ; ; ; *.; ; ; ; ; =.@ ; ^ Y Y H H H c c b k x n c c x j G c ",
"c k c i z x H K ! ! Y P Y D ; | ; =.; | *.| @ | @ | *.C ; =.; | ; c n j c x j j j c x c j z s k a k ",
"c G G S K ! ! / ! P H P c c ; *.} @ ; ; ; ; ; @ ; ; ; ; ; @ } *.; c l x j x x j k n b z z b x k j G ",
"P Y U ! Y U ! c n H P D z ; *.; @ l ; B | C ; < ; C | B ; c @ ; *.; c j l c b P Y U H P P U Y ~ W ~ ",
"l c D U U J c j c H l x z @ < *.; x J ; ; ; C } C ; ; ; c b ; *.< @ j x n Y ~ Y L H c J Y Y ~ Y J P ",
"c H P l c D l c c l j j x @ ; @ c P ! / Y @ < < < @ n l k l c @ ; @ L R / Y H j c c c Y Y I b J x b ",
"x H l c H l D H c j j s ; *.B ; / Y ; ; ; ; C } C ; ; ; ; P n ; B *.; ~ P b c P c n H P P c H n c D ",
"S H ! Y P P Y P c l l ; } ; ; @ T ; } | } B ; < ; B } | } ; ~ # ; ; } ; c c c c c P I U c H j c x D ",
"~ ! Y P P P P c c P l ; *.B } ; P ; | ; ; ; B ; B ; ; ; | ; D ; F B *.; l l D P P ! P P l j D c c j ",
"! P c D l j c c l c D Y ; ; ; P T ; @ | *.; ; T ; ; *.| @ ; c l ; ; ; D l c D P ! T H D c j j z j s ",
"c l l P x D z j j c D P T Y P P I c @ ; } @ l c c @ } ; @ c c S l D l l c I ! ! Y D D l x k z x x Y ",
"c x D l j x S z l D P ! Y I P D l c D ; | @ l D D @ | ; l c l l c c c D Y ! Y P n b c z s z G Y ! ( ",
"c l z z x j s c D U ! ^ Y P P c l D D @ *.@ D c x @ *.; c z j l c c I ! ~ Y c P c x G c j U ~ ~ T P ",
"S j j d s x x U _ ^ T P D P x j c l @ } ; @ l l z @ ; } @ D Y Y Y ^ ^ ! U D c P j c c x Y R Y P H H ",
"c p p x D H ! ( R U P c l j x l c l ; | | @ c c D # | | ; ^ R R ! Y D l l c D l x x k Y ~ Y P H x z ",
"j p x D Y ^ ^ D D c c c c D c l c l l @ @ ; I ( _ ; @ @ T P P P D c c c D l c l z l P ^ Y H P c c D ",
"x D I ^ ^ R I U P l c c l l z x x c x ; | ; ( ^ Y ; | ; l l c D D c D l l c l c J U ( Y P l c x x x ",
"U ~ ^ I U D c z D D c j z l c c l D P ; *.; I D P ; *.; P l c c l l l z c x z c Y ( P n m c c c z z ",
"~ / T I T D D c l c l c z j j D U T ( @ | @ D D c @ | @ D l l l l l j l c D P ^ / P m H c c G c c j ",
"P P c D D c c l l z z j s j D R ( ' ; ; @ ; ; D ; ; @ ; ; l D l c D z x P ~ ^ R P P P c x l l S j z ",
"D D c P l D c j j z x D D I R _ ^ ; C | *.C < ; < C *.| C ; c c l c D Y ' R P D P c l c l x j i D I ",
"c D c c c c D x x l c U ~ / ^ I D ; ; ; ; ; ; l ; ; ; ; ; ; c c P T ^ ^ I P P c c l z j x d a L ~ ^ ",
"D c l c l z l l D D R ( / T D c l z l l c l c c D z l c c D I T ] _ ~ H P P c D c c S D x c ! / ^ T ",
"l D l l l c c D T ( ' R I D D D P c c l l l l D j D D D T D ^ ] Y P P c D c c c D D c D P ^ ~ R D c ",
"l l l D D D T ^ ] R U D P D l D c c l l l l l z j l D D ^ [ I I H H D l c c P c D I I T ^ ~ ! U D D "
};
